<svg width="173" height="156" viewBox="0 0 173 156" fill="none" xmlns="http://www.w3.org/2000/svg">
<path d="M118.175 50.8259L100 51.5" stroke="white" stroke-width="4.67068" stroke-linecap="round" stroke-linejoin="round"/>
<path d="M75.8792 37.5287L63.0169 22.0508" stroke="white" stroke-width="4.67068" stroke-linecap="round" stroke-linejoin="round"/>
<path d="M131.543 37C139.161 37.0001 145.336 43.1056 145.336 50.6367C145.336 58.1677 139.16 64.2724 131.543 64.2725C123.925 64.2725 117.75 58.1678 117.75 50.6367C117.75 43.1056 123.925 37 131.543 37ZM126.37 45.0117C126.096 45.0118 125.832 45.1198 125.639 45.3115C125.445 45.5033 125.336 45.7631 125.336 46.0342V49.6143C125.336 52.9837 126.986 55.0256 128.366 56.1455C129.859 57.351 131.34 57.7607 131.405 57.7773C131.494 57.8012 131.588 57.8013 131.677 57.7773C131.744 57.7601 133.226 57.3501 134.716 56.1455C136.1 55.0256 137.75 52.9836 137.75 49.6143V46.0342C137.75 45.763 137.64 45.5033 137.446 45.3115C137.252 45.1197 136.989 45.0117 136.715 45.0117H126.37Z" fill="white"/>
<path d="M56.793 1C64.4107 1 70.5859 7.10556 70.5859 14.6367C70.5857 22.1677 64.4106 28.2725 56.793 28.2725C49.1754 28.2724 43.0002 22.1677 43 14.6367C43 7.10561 49.1753 1.00007 56.793 1ZM56.793 7.98828C53.3126 7.9883 50.5859 9.56127 50.5859 11.5684V17.7041C50.5859 19.7112 53.3126 21.2842 56.793 21.2842C60.2734 21.2842 63 19.7112 63 17.7041V11.5684C63 9.56126 60.2734 7.98828 56.793 7.98828ZM61.9658 17.7041C61.9658 18.319 61.4561 18.947 60.5684 19.4258C59.5688 19.9646 58.2276 20.2617 56.793 20.2617C55.3583 20.2617 54.0171 19.9646 53.0176 19.4258C52.1299 18.947 51.6211 18.319 51.6211 17.7041V16.6406C52.7241 17.5994 54.6097 18.2158 56.793 18.2158C58.9764 18.2158 60.8628 17.5969 61.9658 16.6406V17.7041ZM61.9658 14.6367C61.9656 15.2515 61.4559 15.8787 60.5684 16.3574C59.5688 16.8963 58.2276 17.1934 56.793 17.1934C55.3583 17.1933 54.0171 16.8963 53.0176 16.3574C52.1301 15.8787 51.6213 15.2515 51.6211 14.6367V13.5723C52.7241 14.531 54.6096 15.1474 56.793 15.1475C58.9764 15.1475 60.8628 14.5285 61.9658 13.5723V14.6367ZM56.793 9.01172C58.2277 9.01172 59.5688 9.30881 60.5684 9.84766C61.456 10.3264 61.9658 10.9535 61.9658 11.5684C61.9657 12.1832 61.456 12.8103 60.5684 13.2891C59.5688 13.8279 58.2277 14.125 56.793 14.125C55.3583 14.125 54.0171 13.8279 53.0176 13.2891C52.13 12.8103 51.6212 12.1832 51.6211 11.5684C51.6211 10.9535 52.13 10.3264 53.0176 9.84766C54.0171 9.30882 55.3583 9.01173 56.793 9.01172Z" fill="white"/>
<path d="M75.2897 61L62.4845 74.8541" stroke="white" stroke-width="4.67068" stroke-linecap="round" stroke-linejoin="round"/>
<path d="M55.5 69C62.9558 69 69 75.0442 69 82.5C69 89.9558 62.9558 96 55.5 96C48.0442 96 42 89.9558 42 82.5C42 75.0442 48.0442 69 55.5 69ZM53.8018 75.1543C53.7155 75.1362 53.6261 75.1384 53.541 75.1611C52.8947 75.3334 52.274 75.5913 51.6953 75.9268C51.6197 75.9707 51.5548 76.0313 51.5068 76.1045C51.4589 76.1777 51.429 76.2617 51.4189 76.3486L51.2334 78.0186C51.1603 78.0883 51.0899 78.1588 51.0225 78.2295L49.3506 78.4219C49.2635 78.432 49.1797 78.4626 49.1064 78.5107C49.0333 78.5588 48.9725 78.6235 48.9287 78.6992C48.5936 79.278 48.3362 79.8987 48.1641 80.5449C48.1415 80.63 48.1391 80.7196 48.1572 80.8057C48.1754 80.8917 48.2136 80.9724 48.2686 81.041L49.3125 82.3477V82.6514L48.2656 83.9629C48.2107 84.0317 48.1724 84.1121 48.1543 84.1982C48.1362 84.2845 48.1384 84.3739 48.1611 84.459C48.3334 85.1053 48.5913 85.726 48.9268 86.3047C48.9707 86.3803 49.0313 86.4452 49.1045 86.4932C49.1777 86.5411 49.2617 86.571 49.3486 86.5811L51.0166 86.7666C51.0864 86.8396 51.1568 86.9101 51.2275 86.9775L51.4219 88.6494C51.432 88.7365 51.4626 88.8203 51.5107 88.8936C51.5588 88.9666 51.6235 89.0275 51.6992 89.0713C52.2779 89.4064 52.8987 89.6638 53.5449 89.8359C53.63 89.8585 53.7196 89.8609 53.8057 89.8428C53.8918 89.8246 53.9723 89.7855 54.041 89.7305L55.3477 88.6875C55.4487 88.6903 55.5503 88.6903 55.6514 88.6875L56.9629 89.7363C57.0317 89.7913 57.1121 89.8296 57.1982 89.8477C57.2845 89.8657 57.3739 89.8636 57.459 89.8408C58.1054 89.6688 58.7261 89.411 59.3047 89.0752C59.3803 89.0312 59.4452 88.9706 59.4932 88.8975C59.5411 88.8243 59.571 88.7402 59.5811 88.6533L59.7666 86.9863C59.8397 86.917 59.9101 86.8466 59.9775 86.7754L61.6494 86.5781C61.7365 86.568 61.8203 86.5374 61.8936 86.4893C61.9666 86.4412 62.0275 86.3765 62.0713 86.3008C62.4064 85.722 62.6638 85.1013 62.8359 84.4551C62.8585 84.37 62.8609 84.2804 62.8428 84.1943C62.8246 84.1082 62.7855 84.0277 62.7305 83.959L61.6875 82.6514C61.6903 82.5503 61.6903 82.4487 61.6875 82.3477L62.7363 81.0371C62.7913 80.9683 62.8296 80.8879 62.8477 80.8018C62.8657 80.7155 62.8636 80.6261 62.8408 80.541C62.6685 79.8947 62.4107 79.274 62.0752 78.6953C62.0312 78.6197 61.9706 78.5548 61.8975 78.5068C61.8243 78.4589 61.7402 78.429 61.6533 78.4189L59.9863 78.2334C59.917 78.1603 59.8466 78.0899 59.7754 78.0225L59.5781 76.3506C59.568 76.2635 59.5374 76.1797 59.4893 76.1064C59.4412 76.0333 59.3765 75.9725 59.3008 75.9287C58.7222 75.5935 58.1014 75.3366 57.4551 75.165C57.37 75.1424 57.2805 75.1401 57.1943 75.1582C57.1084 75.1763 57.0276 75.2138 56.959 75.2686L55.6514 76.3125H55.3477L54.0371 75.2656C53.9684 75.2107 53.8879 75.1724 53.8018 75.1543ZM54.9512 79.7412C55.4967 79.6327 56.0623 79.6885 56.5762 79.9014C57.0901 80.1142 57.5298 80.475 57.8389 80.9375C58.1478 81.4 58.3125 81.9438 58.3125 82.5C58.3125 83.2459 58.0157 83.9608 57.4883 84.4883C56.9608 85.0157 56.2459 85.3125 55.5 85.3125C54.9438 85.3125 54.4 85.1478 53.9375 84.8389C53.475 84.5298 53.1142 84.0901 52.9014 83.5762C52.6885 83.0623 52.6327 82.4967 52.7412 81.9512C52.8497 81.4056 53.1184 80.905 53.5117 80.5117C53.905 80.1184 54.4056 79.8497 54.9512 79.7412Z" fill="white"/>
<path d="M85.0449 31.3779C85.9449 30.8746 87.0551 30.8746 87.9551 31.3779L101.545 38.9697C102.445 39.4719 103 40.4017 103 41.4082V56.5918C103 57.5972 102.446 58.527 101.545 59.0303L87.9551 66.6221C87.0551 67.1254 85.9449 67.1254 85.0449 66.6221L71.4551 59.0303C70.5552 58.5281 70 57.5983 70 56.5918V41.4082C70 40.4028 70.5552 39.473 71.4551 38.9697L85.0449 31.3779ZM86.5 38.5C86.307 38.5 86.1184 38.5587 85.96 38.6689C85.8015 38.7794 85.6802 38.936 85.6133 39.1172L83.1914 45.6914L76.6182 48.1133C76.4371 48.1801 76.2804 48.3007 76.1699 48.459C76.0595 48.6175 76 48.8068 76 49C76.0001 49.1931 76.0595 49.3816 76.1699 49.54C76.2804 49.6985 76.437 49.8198 76.6182 49.8867L83.1914 52.3086L85.6133 58.8818C85.6802 59.0631 85.8014 59.2196 85.96 59.3301C86.1184 59.4405 86.3069 59.5 86.5 59.5C86.6931 59.5 86.8816 59.4405 87.04 59.3301C87.1986 59.2196 87.3198 59.0631 87.3867 58.8818L89.8086 52.3086L96.3818 49.8867C96.563 49.8198 96.7196 49.6985 96.8301 49.54C96.9405 49.3816 96.9999 49.1931 97 49C97 48.8068 96.9405 48.6175 96.8301 48.459C96.7196 48.3007 96.5629 48.1801 96.3818 48.1133L89.8086 45.6914L87.3867 39.1172C87.3198 38.936 87.1985 38.7794 87.04 38.6689C86.8816 38.5587 86.693 38.5 86.5 38.5ZM96.25 40C96.1949 40 96.1409 40.0164 96.0957 40.0479C96.0506 40.0793 96.0162 40.1242 95.9971 40.1758L95.3047 42.0547L93.4268 42.7461C93.375 42.7652 93.3304 42.8004 93.2988 42.8457C93.2673 42.891 93.25 42.9448 93.25 43C93.2501 43.0551 93.2673 43.1091 93.2988 43.1543C93.3304 43.1994 93.3751 43.2339 93.4268 43.2529L95.3047 43.9453L95.9971 45.8232C96.0162 45.875 96.0505 45.9196 96.0957 45.9512C96.141 45.9827 96.1948 46 96.25 46C96.3052 46 96.359 45.9827 96.4043 45.9512C96.4495 45.9196 96.4838 45.875 96.5029 45.8232L97.1953 43.9453L99.0732 43.2529C99.1249 43.2339 99.1696 43.1994 99.2012 43.1543C99.2327 43.1091 99.2499 43.0551 99.25 43C99.25 42.9448 99.2327 42.891 99.2012 42.8457C99.1696 42.8004 99.125 42.7652 99.0732 42.7461L97.1953 42.0547L96.5029 40.1758C96.4838 40.1242 96.4494 40.0793 96.4043 40.0479C96.3591 40.0164 96.3051 40 96.25 40ZM91.75 40C91.7224 40 91.6955 40.0086 91.6729 40.0244C91.6503 40.0402 91.6326 40.0621 91.623 40.0879L91.2773 41.0273L90.3379 41.373C90.3121 41.3826 90.2901 41.4003 90.2744 41.4229C90.2587 41.4455 90.25 41.4724 90.25 41.5C90.2501 41.5275 90.2587 41.5546 90.2744 41.5771C90.2901 41.5995 90.3123 41.6164 90.3379 41.626L91.2773 41.9727L91.623 42.9111C91.6326 42.937 91.6502 42.9598 91.6729 42.9756C91.6955 42.9913 91.7224 43 91.75 43C91.7776 43 91.8045 42.9913 91.8271 42.9756C91.8498 42.9598 91.8674 42.937 91.877 42.9111L92.2227 41.9727L93.1621 41.626C93.1877 41.6164 93.2099 41.5995 93.2256 41.5771C93.2413 41.5546 93.2499 41.5275 93.25 41.5C93.25 41.4724 93.2413 41.4455 93.2256 41.4229C93.2099 41.4003 93.1879 41.3826 93.1621 41.373L92.2227 41.0273L91.877 40.0879C91.8674 40.0621 91.8497 40.0402 91.8271 40.0244C91.8045 40.0086 91.7776 40 91.75 40Z" fill="white"/>
<path d="M6.60511 137H0.980114L11.2216 107.909H17.7273L27.983 137H22.358L14.5881 113.875H14.3608L6.60511 137ZM6.78977 125.594H22.1307V129.827H6.78977V125.594ZM36.7294 107.909V137H31.5874V107.909H36.7294ZM52.9119 115.182V119.159H40.3693V115.182H52.9119ZM43.4659 109.955H48.608V130.438C48.608 131.129 48.7121 131.659 48.9205 132.028C49.1383 132.388 49.4223 132.634 49.7727 132.767C50.1231 132.9 50.5114 132.966 50.9375 132.966C51.2595 132.966 51.553 132.942 51.8182 132.895C52.0928 132.848 52.3011 132.805 52.4432 132.767L53.3097 136.787C53.035 136.882 52.642 136.986 52.1307 137.099C51.6288 137.213 51.0133 137.279 50.2841 137.298C48.9962 137.336 47.8362 137.142 46.804 136.716C45.7718 136.28 44.9527 135.608 44.3466 134.699C43.75 133.79 43.4564 132.653 43.4659 131.29V109.955ZM57.2124 137V115.182H62.3544V137H57.2124ZM59.7976 112.085C58.9832 112.085 58.2824 111.815 57.6953 111.276C57.1082 110.726 56.8146 110.068 56.8146 109.301C56.8146 108.525 57.1082 107.866 57.6953 107.327C58.2824 106.777 58.9832 106.503 59.7976 106.503C60.6214 106.503 61.3222 106.777 61.8999 107.327C62.487 107.866 62.7805 108.525 62.7805 109.301C62.7805 110.068 62.487 110.726 61.8999 111.276C61.3222 111.815 60.6214 112.085 59.7976 112.085ZM67.642 137V115.182H72.5568V118.889H72.8125C73.267 117.639 74.0199 116.664 75.071 115.963C76.1222 115.253 77.3769 114.898 78.8352 114.898C80.3125 114.898 81.5578 115.258 82.571 115.977C83.5938 116.687 84.3134 117.658 84.7301 118.889H84.9574C85.4403 117.677 86.2547 116.711 87.4006 115.991C88.5559 115.262 89.9242 114.898 91.5057 114.898C93.5133 114.898 95.1515 115.532 96.4205 116.801C97.6894 118.07 98.3239 119.921 98.3239 122.355V137H93.1676V123.151C93.1676 121.796 92.8078 120.807 92.0881 120.182C91.3684 119.547 90.4877 119.23 89.446 119.23C88.2055 119.23 87.2348 119.618 86.5341 120.395C85.8428 121.162 85.4972 122.161 85.4972 123.392V137H80.4545V122.938C80.4545 121.811 80.1136 120.911 79.4318 120.239C78.7595 119.566 77.8788 119.23 76.7898 119.23C76.0511 119.23 75.3788 119.42 74.7727 119.798C74.1667 120.168 73.6837 120.693 73.3239 121.375C72.964 122.047 72.7841 122.833 72.7841 123.733V137H67.642ZM113.2 137.426C111.012 137.426 109.123 136.972 107.532 136.062C105.951 135.144 104.734 133.847 103.881 132.17C103.029 130.485 102.603 128.501 102.603 126.219C102.603 123.974 103.029 122.005 103.881 120.31C104.743 118.605 105.946 117.279 107.489 116.332C109.033 115.376 110.846 114.898 112.93 114.898C114.274 114.898 115.543 115.116 116.737 115.551C117.939 115.977 119 116.64 119.918 117.54C120.846 118.439 121.576 119.585 122.106 120.977C122.636 122.36 122.901 124.008 122.901 125.92V127.497H105.018V124.031H117.972C117.963 123.046 117.75 122.17 117.333 121.403C116.916 120.627 116.334 120.016 115.586 119.571C114.847 119.126 113.986 118.903 113.001 118.903C111.95 118.903 111.026 119.159 110.231 119.67C109.435 120.172 108.815 120.835 108.37 121.659C107.934 122.473 107.712 123.368 107.702 124.344V127.369C107.702 128.638 107.934 129.727 108.398 130.636C108.862 131.536 109.511 132.227 110.344 132.71C111.178 133.184 112.153 133.42 113.271 133.42C114.019 133.42 114.696 133.316 115.302 133.108C115.908 132.89 116.433 132.573 116.879 132.156C117.324 131.74 117.66 131.223 117.887 130.608L122.688 131.148C122.385 132.417 121.808 133.525 120.955 134.472C120.112 135.409 119.033 136.138 117.717 136.659C116.4 137.17 114.895 137.426 113.2 137.426ZM135.348 137.384C133.634 137.384 132.1 136.943 130.746 136.062C129.392 135.182 128.321 133.903 127.536 132.227C126.75 130.551 126.357 128.515 126.357 126.119C126.357 123.695 126.754 121.65 127.55 119.983C128.355 118.307 129.439 117.043 130.803 116.19C132.166 115.329 133.686 114.898 135.362 114.898C136.641 114.898 137.692 115.116 138.516 115.551C139.339 115.977 139.993 116.493 140.476 117.099C140.959 117.696 141.333 118.259 141.598 118.79H141.811V107.909H146.967V137H141.911V133.562H141.598C141.333 134.093 140.949 134.656 140.447 135.253C139.946 135.84 139.283 136.342 138.459 136.759C137.635 137.175 136.598 137.384 135.348 137.384ZM136.783 133.165C137.872 133.165 138.8 132.871 139.567 132.284C140.334 131.687 140.916 130.859 141.314 129.798C141.712 128.738 141.911 127.502 141.911 126.091C141.911 124.68 141.712 123.454 141.314 122.412C140.926 121.37 140.348 120.561 139.581 119.983C138.823 119.405 137.891 119.116 136.783 119.116C135.637 119.116 134.68 119.415 133.913 120.011C133.146 120.608 132.569 121.432 132.18 122.483C131.792 123.534 131.598 124.737 131.598 126.091C131.598 127.455 131.792 128.671 132.18 129.741C132.578 130.802 133.161 131.64 133.928 132.256C134.704 132.862 135.656 133.165 136.783 133.165ZM158.725 137.44C157.343 137.44 156.097 137.194 154.989 136.702C153.891 136.2 153.02 135.461 152.376 134.486C151.741 133.51 151.424 132.308 151.424 130.878C151.424 129.647 151.651 128.629 152.106 127.824C152.56 127.019 153.181 126.375 153.967 125.892C154.753 125.409 155.638 125.045 156.623 124.798C157.617 124.543 158.645 124.358 159.705 124.244C160.984 124.112 162.021 123.993 162.816 123.889C163.612 123.776 164.189 123.605 164.549 123.378C164.918 123.141 165.103 122.777 165.103 122.284V122.199C165.103 121.129 164.786 120.3 164.151 119.713C163.517 119.126 162.603 118.832 161.41 118.832C160.15 118.832 159.151 119.107 158.413 119.656C157.683 120.205 157.191 120.854 156.935 121.602L152.134 120.92C152.513 119.595 153.138 118.487 154.009 117.597C154.88 116.697 155.946 116.025 157.205 115.58C158.465 115.125 159.857 114.898 161.381 114.898C162.433 114.898 163.479 115.021 164.521 115.267C165.562 115.513 166.514 115.92 167.376 116.489C168.237 117.047 168.929 117.81 169.45 118.776C169.98 119.741 170.245 120.949 170.245 122.398V137H165.302V134.003H165.131C164.819 134.609 164.379 135.177 163.81 135.707C163.252 136.228 162.546 136.65 161.694 136.972C160.851 137.284 159.862 137.44 158.725 137.44ZM160.06 133.662C161.093 133.662 161.987 133.458 162.745 133.051C163.503 132.634 164.085 132.085 164.492 131.403C164.909 130.722 165.117 129.978 165.117 129.173V126.602C164.956 126.735 164.682 126.858 164.293 126.972C163.915 127.085 163.488 127.185 163.015 127.27C162.541 127.355 162.073 127.431 161.609 127.497C161.145 127.563 160.742 127.62 160.401 127.668C159.634 127.772 158.948 127.942 158.342 128.179C157.736 128.416 157.257 128.747 156.907 129.173C156.557 129.59 156.381 130.13 156.381 130.793C156.381 131.74 156.727 132.455 157.418 132.938C158.11 133.42 158.99 133.662 160.06 133.662Z" fill="white"/>
<path d="M42.5916 155V149.182H44.9212C45.3492 149.182 45.7062 149.245 45.9922 149.372C46.2782 149.499 46.4931 149.675 46.6371 149.901C46.781 150.124 46.853 150.382 46.853 150.673C46.853 150.901 46.8075 151.1 46.7166 151.273C46.6257 151.443 46.5007 151.583 46.3416 151.693C46.1844 151.801 46.0045 151.878 45.8018 151.923V151.98C46.0234 151.99 46.2308 152.052 46.424 152.168C46.6191 152.283 46.7772 152.445 46.8984 152.653C47.0196 152.86 47.0803 153.106 47.0803 153.392C47.0803 153.701 47.0036 153.976 46.8501 154.219C46.6986 154.459 46.4742 154.65 46.1768 154.79C45.8795 154.93 45.513 155 45.0774 155H42.5916ZM43.8217 153.994H44.8246C45.1674 153.994 45.4174 153.929 45.5746 153.798C45.7318 153.666 45.8104 153.49 45.8104 153.27C45.8104 153.109 45.7715 152.967 45.6939 152.844C45.6162 152.721 45.5054 152.624 45.3615 152.554C45.2195 152.484 45.05 152.449 44.853 152.449H43.8217V153.994ZM43.8217 151.616H44.7337C44.9022 151.616 45.0518 151.587 45.1825 151.528C45.3151 151.468 45.4193 151.383 45.495 151.273C45.5727 151.163 45.6115 151.031 45.6115 150.878C45.6115 150.668 45.5367 150.498 45.3871 150.369C45.2393 150.241 45.0291 150.176 44.7564 150.176H43.8217V151.616ZM51.0807 155V149.182H55.0011V150.196H52.3108V151.582H54.7994V152.597H52.3108V153.986H55.0125V155H51.0807ZM58.8382 149.182H60.2161L61.5428 151.688H61.5996L62.9263 149.182H64.3041L62.182 152.943V155H60.9604V152.943L58.8382 149.182ZM73.171 152.091C73.171 152.725 73.0508 153.265 72.8102 153.71C72.5716 154.155 72.2458 154.495 71.833 154.73C71.422 154.963 70.9598 155.08 70.4466 155.08C69.9295 155.08 69.4655 154.962 69.0545 154.727C68.6436 154.492 68.3187 154.152 68.0801 153.707C67.8415 153.262 67.7222 152.723 67.7222 152.091C67.7222 151.456 67.8415 150.917 68.0801 150.472C68.3187 150.027 68.6436 149.687 69.0545 149.455C69.4655 149.22 69.9295 149.102 70.4466 149.102C70.9598 149.102 71.422 149.22 71.833 149.455C72.2458 149.687 72.5716 150.027 72.8102 150.472C73.0508 150.917 73.171 151.456 73.171 152.091ZM71.9239 152.091C71.9239 151.68 71.8623 151.333 71.7392 151.051C71.618 150.769 71.4466 150.555 71.225 150.409C71.0034 150.263 70.7439 150.19 70.4466 150.19C70.1492 150.19 69.8898 150.263 69.6682 150.409C69.4466 150.555 69.2742 150.769 69.1511 151.051C69.0299 151.333 68.9693 151.68 68.9693 152.091C68.9693 152.502 69.0299 152.848 69.1511 153.131C69.2742 153.413 69.4466 153.627 69.6682 153.773C69.8898 153.919 70.1492 153.991 70.4466 153.991C70.7439 153.991 71.0034 153.919 71.225 153.773C71.4466 153.627 71.618 153.413 71.7392 153.131C71.8623 152.848 71.9239 152.502 71.9239 152.091ZM82.1487 149.182V155H81.0862L78.555 151.338H78.5124V155H77.2822V149.182H78.3618L80.8732 152.841H80.9243V149.182H82.1487ZM88.4276 155H86.3651V149.182H88.4446C89.0298 149.182 89.5336 149.298 89.956 149.531C90.3783 149.762 90.7031 150.095 90.9304 150.528C91.1596 150.962 91.2741 151.481 91.2741 152.085C91.2741 152.691 91.1596 153.212 90.9304 153.648C90.7031 154.083 90.3764 154.418 89.9503 154.651C89.526 154.884 89.0185 155 88.4276 155ZM87.5952 153.946H88.3764C88.7401 153.946 89.0459 153.882 89.294 153.753C89.544 153.622 89.7315 153.42 89.8565 153.148C89.9834 152.873 90.0469 152.519 90.0469 152.085C90.0469 151.655 89.9834 151.304 89.8565 151.031C89.7315 150.759 89.545 150.558 89.2969 150.429C89.0488 150.3 88.7429 150.236 88.3793 150.236H87.5952V153.946ZM102.499 155H100.437V149.182H102.516C103.102 149.182 103.605 149.298 104.028 149.531C104.45 149.762 104.775 150.095 105.002 150.528C105.231 150.962 105.346 151.481 105.346 152.085C105.346 152.691 105.231 153.212 105.002 153.648C104.775 154.083 104.448 154.418 104.022 154.651C103.598 154.884 103.09 155 102.499 155ZM101.667 153.946H102.448C102.812 153.946 103.118 153.882 103.366 153.753C103.616 153.622 103.803 153.42 103.928 153.148C104.055 152.873 104.119 152.519 104.119 152.085C104.119 151.655 104.055 151.304 103.928 151.031C103.803 150.759 103.617 150.558 103.369 150.429C103.121 150.3 102.815 150.236 102.451 150.236H101.667V153.946ZM110.132 155H108.814L110.822 149.182H112.408L114.413 155H113.095L111.638 150.511H111.592L110.132 155ZM110.05 152.713H113.163V153.673H110.05V152.713ZM117.381 150.196V149.182H122.159V150.196H120.378V155H119.162V150.196H117.381ZM126.438 155H125.12L127.129 149.182H128.714L130.719 155H129.401L127.944 150.511H127.898L126.438 155ZM126.356 152.713H129.469V153.673H126.356V152.713Z" fill="white"/>
</svg>
